<svg width="102" height="35" viewBox="0 0 102 35" fill="none" xmlns="http://www.w3.org/2000/svg">
<g clip-path="url(#clip0)">
<path d="M19.3691 30.2847H29.5902C26.788 32.9194 23.1958 34.5575 19.3691 34.9455V30.2847ZM5.55209 30.2847H15.775V34.9455C11.9476 34.5585 8.35443 32.9203 5.55209 30.2847ZM19.3691 26.6993V22.5315H34.3942C33.9558 23.9974 33.3254 25.3988 32.5193 26.6993H19.3691ZM2.62043 26.6993C1.81732 25.398 1.18888 23.9967 0.751221 22.5315H15.7763V26.6993H2.62043Z" fill="#65C4FF"/>
<path d="M19.3687 18.9456V16.3126L30.266 5.4385C33.3868 8.68877 35.1274 13.0215 35.1225 17.5275C35.1225 18.0025 35.1012 18.4763 35.0637 18.9437L19.3687 18.9456ZM0.0789397 18.9456C0.0414427 18.4781 0.0214949 18.005 0.0214949 17.5294C0.0165398 13.0237 1.75633 8.69118 4.87607 5.44033L15.7752 16.3146V18.9474L0.0789397 18.9456ZM7.62022 3.10806C10.5468 1.09188 14.0182 0.0152224 17.572 0.0214502C21.1257 0.0156979 24.5969 1.09231 27.5237 3.10806L17.572 13.0348L7.62022 3.10806Z" fill="#1866ED"/>
<path d="M50.3961 23.9311V24.3188H46.7828V26.7736H50.2491V27.1613H46.7828V30.0906H46.3279V23.9311H50.3961ZM55.103 23.9311V30.0912H54.6482V23.9311H55.103ZM59.7234 30.0896V23.9311H60.3082L64.4459 29.3232V23.9311H64.8574V30.0912H64.4892L60.1344 24.4408V30.0912L59.7234 30.0896ZM69.2052 30.0896H68.7172L71.5229 23.9311H72.0643L74.8807 30.0896H74.3392L73.4209 28.0241H70.8168L70.9942 27.6364H73.2515L71.7639 24.2858L69.2052 30.0896ZM78.7431 30.0896V23.9311H79.3279L83.4656 29.3248V23.9311H83.8772V30.0912H83.5089L79.1542 24.4408V30.0912L78.7431 30.0896ZM93.0473 29.8765C92.4859 30.0485 91.9018 30.1356 91.3144 30.1349C89.1493 30.1345 88.0667 29.0648 88.0667 26.9259C88.0667 24.902 89.15 23.89 91.3166 23.89C91.9039 23.8893 92.488 23.9764 93.0495 24.1484V24.5361C92.5167 24.3686 91.9618 24.2815 91.4031 24.2778C89.4821 24.2778 88.5216 25.1607 88.5216 26.9264C88.5216 28.8083 89.4821 29.7492 91.4031 29.7492C91.9618 29.7455 92.5167 29.6584 93.0495 29.4909L93.0473 29.8765ZM101.454 23.9311V24.3188H97.8403V26.7736H101.307V27.1613H97.8403V29.7024H101.515V30.0901H97.3855V23.9311H101.454Z" fill="#0D0B29"/>
<path d="M99.1966 17.7905V4.42947H101.95V17.7905H99.1966ZM93.5506 17.7905L92.0595 14.2365H88.243L89.2057 11.8113H91.0439L89.2352 7.51121L86.1017 15.1836L85.0374 17.7905H82.189L87.8794 4.42947H90.7059L96.5187 17.7905H93.5506ZM56.8414 17.7905V4.42947H65.7611V6.83695H59.5781V9.7884H65.4498V12.2777H59.5497V17.7905H56.8414ZM46.5356 17.7905V13.1141L41.3901 4.42947H44.3808L47.9582 10.5378L51.3222 4.42947H54.2182L49.2888 13.1131V17.7905H46.5356ZM68.7683 17.7905V4.42947H74.0555C78.4741 4.42947 80.7134 6.55757 80.7134 10.7547C80.7134 15.4234 78.4741 17.7899 74.0555 17.7899L68.7683 17.7905ZM71.5226 15.3653H74.0555C76.682 15.3653 77.9597 13.8578 77.9597 10.7553C77.9597 8.13086 76.6814 6.85573 74.0555 6.85573H71.5221L71.5226 15.3653Z" fill="#0D0B29"/>
</g>
<defs>
<clipPath id="clip0">
<rect width="101.95" height="35" fill="white"/>
</clipPath>
</defs>
</svg>
